<?xml version="1.0" encoding="UTF-8" standalone="no"?>
<svg
   xmlns:dc="http://purl.org/dc/elements/1.1/"
   xmlns:cc="http://creativecommons.org/ns#"
   xmlns:rdf="http://www.w3.org/1999/02/22-rdf-syntax-ns#"
   xmlns:svg="http://www.w3.org/2000/svg"
   xmlns="http://www.w3.org/2000/svg"
   height="89.800003"
   width="89.800003"
   id="svg2"
   xml:space="preserve"
   viewBox="0 0 89.800003 89.800003"
   y="0px"
   x="0px"
   version="1.1"><metadata
     id="metadata24"><rdf:RDF><cc:Work
         rdf:about=""><dc:format>image/svg+xml</dc:format><dc:type
           rdf:resource="http://purl.org/dc/dcmitype/StillImage" /><dc:title></dc:title></cc:Work></rdf:RDF></metadata><defs
     id="defs22" /><style
     id="style4"
     type="text/css">
	.st0{fill:none;stroke:#333333;stroke-width:3;stroke-miterlimit:10;}
</style><circle
     style="fill:none;stroke:#333333;stroke-width:3;stroke-miterlimit:10"
     r="43.400002"
     id="circle6"
     cy="44.900002"
     cx="44.900002"
     class="st0" /><g
     style="fill:#333333;fill-opacity:1"
     transform="translate(-5.0999985,-5.0999985)"
     id="g8"><path
       style="fill:#333333;fill-opacity:1"
       id="path10"
       d="m 56.4,26.4 c 4.3,-2.7 10.4,-1.7 14.7,2.5 4.3,4.3 5.2,10.4 2.5,14.7 -4.2,-0.7 -8.2,-2.7 -11.3,-5.9 -3.2,-3.2 -5.1,-7.1 -5.9,-11.3 l 0,0 z" /><path
       style="fill:#333333;fill-opacity:1"
       id="path12"
       d="M 59.8,40.2 C 56.7,37.1 54.6,33.3 53.5,29.3 50.8,33.5 51.8,39.7 56,44 c 4.3,4.3 10.4,5.2 14.7,2.6 -4,-1.2 -7.8,-3.3 -10.9,-6.4 l 0,0 z" /><path
       style="fill:#333333;fill-opacity:1"
       id="path14"
       d="M 53.5,46.5 C 51.8,44.8 50.6,42.9 49.8,40.9 L 25.9,69.1 c -1.4,1.4 -1.4,3.6 0,5 1.4,1.4 3.6,1.4 5,0 L 59.1,50.2 c -2,-0.8 -3.9,-2.1 -5.6,-3.7 l 0,0 z" /></g></svg>