<?xml version="1.0" encoding="UTF-8" standalone="no"?>
<svg
   xmlns:dc="http://purl.org/dc/elements/1.1/"
   xmlns:cc="http://creativecommons.org/ns#"
   xmlns:rdf="http://www.w3.org/1999/02/22-rdf-syntax-ns#"
   xmlns:svg="http://www.w3.org/2000/svg"
   xmlns="http://www.w3.org/2000/svg"
   height="512"
   width="512"
   y="0px"
   x="0px"
   id="ZomatoLogo"
   version="1.1">
  <metadata
     id="metadata13">
    <rdf:RDF>
      <cc:Work
         rdf:about="">
        <dc:format>image/svg+xml</dc:format>
        <dc:type
           rdf:resource="http://purl.org/dc/dcmitype/StillImage" />
        <dc:title></dc:title>
      </cc:Work>
    </rdf:RDF>
  </metadata>
  <defs
     id="defs11" />
  <g
     id="g3">
    <path
       style="fill:#cb202d"
       id="path5"
       d="m 255,180.7 c -11.8,0 -22.2,1.3 -31.5,3.6 -9.2,2.6 -17.4,5.6 -24.6,9.2 l 0,0 c -1.8,0.8 -3.1,2.6 -3.1,4.6 0,2.8 2.3,5.1 5.1,5.1 0.8,0 1.5,-0.3 2.3,-0.5 l 0,0 0,0 c 0.3,0 0.5,-0.3 0.5,-0.3 11.5,-6.4 29.9,-14.6 56.5,-15.4 30.9,-1.8 62.9,3.8 62.9,3.8 -14.7,-3.7 -41.5,-10.1 -68.1,-10.1 z" />
    <path
       style="fill:#cb202d"
       id="path7"
       d="M 443.5,0 68.5,0 C 30.7,0 0.3,30.5 0.3,68.4 l 0,172.8 c 61.4,3.1 75.2,1.8 93.6,-0.5 18.9,-2.3 44.2,-30.2 44.2,-30.2 0,0 23.3,-35.8 78.8,-50.9 C 272.4,144.5 345,171 345,171 c 87.2,31.2 89.3,82.9 89.3,82.9 l 0,4.6 c 0,0 -2,51.7 -89.3,82.7 0,0 -72.6,26.9 -128.4,11.8 -55.5,-15.1 -78.8,-50.9 -78.8,-50.9 0,0 -25.3,-27.9 -44.2,-30.2 C 75.2,269.6 61.4,268.3 0,271.4 L 0,444.2 C 0.3,481.5 30.7,512 68.5,512 l 375.2,0 c 37.6,0 68.3,-30.5 68.3,-68.4 L 512,68.4 C 511.7,30.5 481.3,0 443.5,0 Z" />
  </g>
</svg>
