<?xml version="1.0" encoding="UTF-8" standalone="no"?>
<svg
   xmlns:dc="http://purl.org/dc/elements/1.1/"
   xmlns:cc="http://creativecommons.org/ns#"
   xmlns:rdf="http://www.w3.org/1999/02/22-rdf-syntax-ns#"
   xmlns:svg="http://www.w3.org/2000/svg"
   xmlns="http://www.w3.org/2000/svg"
   xmlns:sodipodi="http://sodipodi.sourceforge.net/DTD/sodipodi-0.dtd"
   xmlns:inkscape="http://www.inkscape.org/namespaces/inkscape"
   version="1.1"
   x="0px"
   y="0px"
   viewBox="0 0 62.099998 85.269516"
   xml:space="preserve"
   id="svg2"
   inkscape:version="0.91 r13725"
   sodipodi:docname="concert-marker-red.svg"
   width="62.099998"
   height="85.269516"><metadata
     id="metadata30"><rdf:RDF><cc:Work
         rdf:about=""><dc:format>image/svg+xml</dc:format><dc:type
           rdf:resource="http://purl.org/dc/dcmitype/StillImage" /><dc:title></dc:title></cc:Work></rdf:RDF></metadata><defs
     id="defs28" /><sodipodi:namedview
     pagecolor="#ffffff"
     bordercolor="#666666"
     borderopacity="1"
     objecttolerance="10"
     gridtolerance="10"
     guidetolerance="10"
     inkscape:pageopacity="0"
     inkscape:pageshadow="2"
     inkscape:window-width="1920"
     inkscape:window-height="1017"
     id="namedview26"
     showgrid="false"
     showguides="true"
     inkscape:guide-bbox="true"
     inkscape:zoom="9.44"
     inkscape:cx="42.882997"
     inkscape:cy="44.497486"
     inkscape:window-x="1358"
     inkscape:window-y="-8"
     inkscape:window-maximized="1"
     inkscape:current-layer="svg2"
     fit-margin-top="0"
     fit-margin-left="0"
     fit-margin-right="0"
     fit-margin-bottom="0"><sodipodi:guide
       position="31.038559,88.88308"
       orientation="1,0"
       id="guide3360" /><sodipodi:guide
       position="2.198517,54.216766"
       orientation="0,1"
       id="guide3362" /><sodipodi:guide
       position="6.515254,51.330113"
       orientation="1,0"
       id="guide3364" /></sodipodi:namedview><style
     type="text/css"
     id="style4">
	.st0{fill:#010202;}
</style><ellipse
     style="fill:#ffffff;fill-opacity:1;stroke:#ffffff;stroke-width:1.08062482;stroke-opacity:1"
     id="path3358"
     cx="31.012075"
     cy="30.602543"
     rx="24.49682"
     ry="24.705505" /><g
     id="g20"
     transform="translate(-19.65,-6.05)"><g
       id="g22"><path
         class="st0"
         d="M 50.7,6.8 C 33.9,6.8 20.4,20.4 20.4,37.1 20.4,62.4 50.7,90.3 50.7,90.3 50.7,90.3 81,62.4 81,37.1 81,20.3 67.4,6.8 50.7,6.8 Z m 0,5.4 c 13.5,0 24.5,11 24.5,24.5 0,13.5 -11,24.5 -24.5,24.5 -13.5,0 -24.5,-11 -24.5,-24.5 0,-13.5 10.9,-24.5 24.5,-24.5 z"
         id="path24"
         style="fill:#cb202d;fill-opacity:1;stroke:#000000;stroke-width:1.5;stroke-miterlimit:4;stroke-dasharray:none;stroke-opacity:1"
         inkscape:connector-curvature="0" /></g></g><path
     inkscape:connector-curvature="0"
     id="path8"
     d="m 28.457728,19.709143 a 1.689466,1.689466 0 0 0 -1.602447,1.156073 l -4.2334,12.704928 c -0.786752,-0.556503 -1.743119,-0.885943 -2.771153,-0.885943 -2.649729,0 -4.830347,2.180712 -4.830347,4.82961 0,2.648899 2.180618,4.829589 4.830347,4.829589 2.408445,0 4.427897,-1.801797 4.775738,-4.119085 a 1.6896218,1.6896218 0 0 0 0.04491,-0.115106 l 5.00419,-15.021609 12.606471,0 -3.51049,10.537255 c -0.800676,-0.589809 -1.785993,-0.940654 -2.847668,-0.940654 -2.649727,0 -4.829878,2.180712 -4.829878,4.82961 0,2.648899 2.180151,4.829589 4.829878,4.829589 2.30314,0 4.250456,-1.647594 4.72066,-3.818013 a 1.689466,1.689466 0 0 0 0.193559,-0.416178 l 5.390363,-16.176182 a 1.689466,1.689466 0 0 0 -1.6037,-2.223884 l -16.167033,0 z"
     style="color:#000000;font-style:normal;font-variant:normal;font-weight:normal;font-stretch:normal;font-size:medium;line-height:normal;font-family:sans-serif;text-indent:0;text-align:start;text-decoration:none;text-decoration-line:none;text-decoration-style:solid;text-decoration-color:#000000;letter-spacing:normal;word-spacing:normal;text-transform:none;direction:ltr;block-progression:tb;writing-mode:lr-tb;baseline-shift:baseline;text-anchor:start;white-space:normal;clip-rule:nonzero;display:inline;overflow:visible;visibility:visible;opacity:1;isolation:auto;mix-blend-mode:normal;color-interpolation:sRGB;color-interpolation-filters:linearRGB;solid-color:#000000;solid-opacity:1;fill:#000000;fill-opacity:1;fill-rule:evenodd;stroke:none;stroke-width:5.00000048;stroke-linecap:round;stroke-linejoin:round;stroke-miterlimit:4;stroke-dasharray:none;stroke-dashoffset:0;stroke-opacity:1;color-rendering:auto;image-rendering:auto;shape-rendering:auto;text-rendering:auto;enable-background:accumulate" /></svg>