<?xml version="1.0" encoding="UTF-8" standalone="no"?>
<svg
   xmlns:dc="http://purl.org/dc/elements/1.1/"
   xmlns:cc="http://creativecommons.org/ns#"
   xmlns:rdf="http://www.w3.org/1999/02/22-rdf-syntax-ns#"
   xmlns:svg="http://www.w3.org/2000/svg"
   xmlns="http://www.w3.org/2000/svg"
   xmlns:sodipodi="http://sodipodi.sourceforge.net/DTD/sodipodi-0.dtd"
   xmlns:inkscape="http://www.inkscape.org/namespaces/inkscape"
   id="svg2"
   xml:space="preserve"
   viewBox="0 0 62.099998 85.269516"
   y="0px"
   x="0px"
   version="1.1"
   inkscape:version="0.91 r13725"
   sodipodi:docname="restaurant-marker-blue.svg"
   width="62.099998"
   height="85.269516"><sodipodi:namedview
     pagecolor="#ffffff"
     bordercolor="#666666"
     borderopacity="1"
     objecttolerance="10"
     gridtolerance="10"
     guidetolerance="10"
     inkscape:pageopacity="0"
     inkscape:pageshadow="2"
     inkscape:window-width="1920"
     inkscape:window-height="1017"
     id="namedview17"
     showgrid="false"
     inkscape:zoom="13.350176"
     inkscape:cx="28.345887"
     inkscape:cy="55.688502"
     inkscape:window-x="1358"
     inkscape:window-y="-8"
     inkscape:window-maximized="1"
     inkscape:current-layer="svg2"
     fit-margin-top="0"
     fit-margin-left="0"
     fit-margin-right="0"
     fit-margin-bottom="0"
     showguides="true"
     inkscape:guide-bbox="true"><sodipodi:guide
       position="31.085732,80.223661"
       orientation="1,0"
       id="guide4145" /><sodipodi:guide
       position="-31.160638,54.231495"
       orientation="0,1"
       id="guide4147" /></sodipodi:namedview><metadata
     id="metadata30"><rdf:RDF><cc:Work
         rdf:about=""><dc:format>image/svg+xml</dc:format><dc:type
           rdf:resource="http://purl.org/dc/dcmitype/StillImage" /><dc:title></dc:title></cc:Work></rdf:RDF></metadata><defs
     id="defs28" /><style
     id="style4"
     type="text/css">
	.st0{fill:#010202;}
</style><ellipse
     id="path3358"
     style="fill:#ffffff;fill-opacity:1;stroke:#ffffff;stroke-width:1.08062482;stroke-opacity:1"
     ry="24.362005"
     rx="24.403545"
     cy="30.602543"
     cx="31.012075" /><g
     id="g6"
     transform="matrix(0.82819867,0,0,0.82819867,-11.607637,0.12385261)"><g
       id="g8"><g
         id="g10"><path
           id="path12"
           d="m 43.1,32 0,22.7 c 0,0.6 0.2,1.1 0.6,1.5 0.4,0.4 0.9,0.6 1.5,0.6 0.6,0 1.1,-0.2 1.5,-0.6 0.4,-0.4 0.6,-0.9 0.6,-1.5 l 0,-22.7 c 0.6,-0.2 3.1,-2.4 3.1,-3.1 l 0,-9.1 c 0,-0.3 -0.1,-0.6 -0.3,-0.8 -0.2,-0.2 -0.5,-0.3 -0.8,-0.3 -0.3,0 -0.6,0.1 -0.8,0.3 -0.2,0.2 -0.3,0.5 -0.3,0.8 l 0,7.1 c 0,0.3 -0.1,0.6 -0.3,0.8 C 47.7,27.9 47.4,28 47.1,28 46.8,28 46.5,27.9 46.3,27.7 46.1,27.5 46,27.2 46,26.9 l 0,-7.1 c 0,-0.3 -0.1,-0.6 -0.3,-0.8 -0.2,-0.2 -0.5,-0.3 -0.8,-0.3 -0.3,0 -0.6,0.1 -0.8,0.3 -0.2,0.2 -0.3,0.5 -0.3,0.8 l 0,7.1 c 0,0.3 -0.1,0.6 -0.3,0.8 -0.2,0.2 -0.5,0.3 -0.8,0.3 -0.3,0 -0.6,-0.1 -0.8,-0.3 -0.2,-0.2 -0.3,-0.5 -0.3,-0.8 l 0,-7.1 c 0,-0.3 -0.1,-0.6 -0.3,-0.8 -0.2,-0.2 -0.5,-0.3 -0.8,-0.3 -0.3,0 -0.6,0.1 -0.8,0.3 -0.2,0.2 -0.3,0.5 -0.3,0.8 l 0,9.1 c 0.2,0.7 3,2.9 3.7,3.1 z"
           class="st0"
           inkscape:connector-curvature="0"
           style="fill:#010202" /><path
           id="path14"
           d="m 45.3,56.8 c 0,0 -0.1,0 0,0 -0.1,0 -0.1,0 0,0 l 0,0 z"
           class="st0"
           inkscape:connector-curvature="0"
           style="fill:#010202" /><path
           id="path16"
           d="m 59.2,57.3 c 0,0 0,0 0,0 0,0 -0.1,0 0,0 l 0,0 z"
           class="st0"
           inkscape:connector-curvature="0"
           style="fill:#010202" /><path
           id="path18"
           d="m 54.5,37.4 2.5,0 0,17.7 c 0,0.6 0.2,1.1 0.6,1.5 0.4,0.4 0.9,0.6 1.5,0.6 0.6,0 1.1,-0.2 1.5,-0.6 0.4,-0.4 0.6,-0.9 0.6,-1.5 l 0,-36.2 c 0,-0.3 -0.1,-0.6 -0.3,-0.8 -0.2,-0.2 -0.5,-0.3 -0.8,-0.3 l -0.8,0 c -1.5,0 -2.8,0.5 -3.9,1.6 -1.1,1.1 -1.6,2.4 -1.6,3.9 l 0,13.6 c 0,0.1 0.1,0.3 0.2,0.4 0.3,0.1 0.4,0.1 0.5,0.1 z"
           class="st0"
           inkscape:connector-curvature="0"
           style="fill:#010202" /></g></g></g><g
     id="g20"
     transform="translate(-19.65,-6.05)"><g
       id="g22"><path
         style="fill:#1e90ff;fill-opacity:1;stroke:#000000;stroke-width:1.5;stroke-miterlimit:4;stroke-dasharray:none;stroke-opacity:1"
         id="path24"
         d="M 50.7,6.8 C 33.9,6.8 20.4,20.4 20.4,37.1 20.4,62.4 50.7,90.3 50.7,90.3 50.7,90.3 81,62.4 81,37.1 81,20.3 67.4,6.8 50.7,6.8 Z m 0,5.4 c 13.5,0 24.5,11 24.5,24.5 0,13.5 -11,24.5 -24.5,24.5 -13.5,0 -24.5,-11 -24.5,-24.5 0,-13.5 10.9,-24.5 24.5,-24.5 z"
         class="st0"
         inkscape:connector-curvature="0" /></g></g></svg>